<svg class="icon"
    style="width: 1em;height: 1em;vertical-align: middle;fill: currentColor;overflow: hidden;"
    viewBox="0 0 1024 1024" version="1.1" xmlns="http://www.w3.org/2000/svg" p-id="2693">
    <path
        d="M60.235294 0h30.117647v30.117647H60.235294zM60.235294 993.882353h30.117647v30.117647H60.235294zM30.117647 60.235294v30.117647H0V60.235294zM1024 60.235294v30.117647h-30.117647V60.235294zM30.117647 30.117647h30.117647v30.117647H30.117647z"
        fill="#FFB902" p-id="2694"></path>
    <path
        d="M60.235294 30.117647h30.117647v30.117647H60.235294zM30.117647 60.235294h30.117647v30.117647H30.117647zM150.588235 30.117647h30.117647v30.117647h-30.117647zM873.411765 30.117647h30.117647v30.117647h-30.117647zM90.352941 30.117647h30.117647v30.117647H90.352941zM60.235294 60.235294h30.117647v30.117647H60.235294z"
        fill="#FFFFFF" p-id="2695"></path>
    <path d="M150.588235 120.470588h30.117647v30.117647h-30.117647z" fill="#FFD908" p-id="2696"></path>
    <path d="M150.588235 150.588235h30.117647v30.117647h-30.117647z" fill="#FFFFFF" p-id="2697"></path>
    <path d="M120.470588 150.588235h30.117647v30.117647H120.470588z" fill="#FFD908" p-id="2698"></path>
    <path d="M150.588235 180.705882h30.117647v30.117647h-30.117647z" fill="#FBFD04" p-id="2699"></path>
    <path d="M120.470588 180.705882h30.117647v30.117647H120.470588z" fill="#FFD908" p-id="2700"></path>
    <path d="M150.588235 210.823529h30.117647v30.117647h-30.117647z" fill="#FFB902" p-id="2701"></path>
    <path
        d="M120.470588 210.823529h30.117647v30.117647H120.470588zM150.588235 240.941176h30.117647v30.117648h-30.117647zM120.470588 240.941176h30.117647v30.117648H120.470588zM150.588235 271.058824h30.117647v30.117647h-30.117647zM120.470588 271.058824h30.117647v30.117647H120.470588zM150.588235 301.176471h30.117647v30.117647h-30.117647zM120.470588 301.176471h30.117647v30.117647H120.470588zM150.588235 331.294118h30.117647v30.117647h-30.117647zM120.470588 331.294118h30.117647v30.117647H120.470588zM150.588235 361.411765h30.117647v30.117647h-30.117647zM120.470588 361.411765h30.117647v30.117647H120.470588zM150.588235 391.529412h30.117647v30.117647h-30.117647zM120.470588 391.529412h30.117647v30.117647H120.470588zM150.588235 421.647059h30.117647v30.117647h-30.117647zM120.470588 421.647059h30.117647v30.117647H120.470588zM150.588235 451.764706h30.117647v30.117647h-30.117647zM120.470588 451.764706h30.117647v30.117647H120.470588zM150.588235 481.882353h30.117647v30.117647h-30.117647zM120.470588 481.882353h30.117647v30.117647H120.470588zM150.588235 512h30.117647v30.117647h-30.117647zM120.470588 512h30.117647v30.117647H120.470588zM150.588235 542.117647h30.117647v30.117647h-30.117647zM120.470588 542.117647h30.117647v30.117647H120.470588zM150.588235 572.235294h30.117647v30.117647h-30.117647zM120.470588 572.235294h30.117647v30.117647H120.470588zM150.588235 602.352941h30.117647v30.117647h-30.117647zM120.470588 602.352941h30.117647v30.117647H120.470588zM150.588235 632.470588h30.117647v30.117647h-30.117647zM120.470588 632.470588h30.117647v30.117647H120.470588zM150.588235 662.588235h30.117647v30.117647h-30.117647zM120.470588 662.588235h30.117647v30.117647H120.470588zM150.588235 692.705882h30.117647v30.117647h-30.117647zM120.470588 692.705882h30.117647v30.117647H120.470588zM150.588235 722.823529h30.117647v30.117647h-30.117647zM120.470588 722.823529h30.117647v30.117647H120.470588zM150.588235 752.941176h30.117647v30.117648h-30.117647zM120.470588 752.941176h30.117647v30.117648H120.470588zM150.588235 783.058824h30.117647v30.117647h-30.117647zM120.470588 783.058824h30.117647v30.117647H120.470588z"
        fill="#FFD908" p-id="2702"></path>
    <path
        d="M150.588235 783.058824h30.117647v30.117647h-30.117647zM120.470588 783.058824h30.117647v30.117647H120.470588z"
        fill="#FFD908" p-id="2703"></path>
    <path
        d="M150.588235 783.058824h30.117647v30.117647h-30.117647zM120.470588 783.058824h30.117647v30.117647H120.470588z"
        fill="#FFD908" p-id="2704"></path>
    <path d="M150.588235 813.176471h30.117647v30.117647h-30.117647z" fill="#FFFFFF" p-id="2705"></path>
    <path d="M120.470588 813.176471h30.117647v30.117647H120.470588z" fill="#FFD908" p-id="2706"></path>
    <path d="M150.588235 843.294118h30.117647v30.117647h-30.117647z" fill="#FBFD04" p-id="2707"></path>
    <path
        d="M120.470588 843.294118h30.117647v30.117647H120.470588zM180.705882 120.470588h30.117647v30.117647h-30.117647z"
        fill="#FFD908" p-id="2708"></path>
    <path
        d="M180.705882 150.588235h30.117647v30.117647h-30.117647zM180.705882 180.705882h30.117647v30.117647h-30.117647z"
        fill="#FBFD04" p-id="2709"></path>
    <path d="M180.705882 210.823529h30.117647v30.117647h-30.117647z" fill="#FFB902" p-id="2710"></path>
    <path
        d="M180.705882 240.941176h30.117647v30.117648h-30.117647zM180.705882 271.058824h30.117647v30.117647h-30.117647zM180.705882 301.176471h30.117647v30.117647h-30.117647zM180.705882 331.294118h30.117647v30.117647h-30.117647zM180.705882 361.411765h30.117647v30.117647h-30.117647zM180.705882 391.529412h30.117647v30.117647h-30.117647zM180.705882 421.647059h30.117647v30.117647h-30.117647zM180.705882 451.764706h30.117647v30.117647h-30.117647zM180.705882 481.882353h30.117647v30.117647h-30.117647zM180.705882 512h30.117647v30.117647h-30.117647zM180.705882 542.117647h30.117647v30.117647h-30.117647zM180.705882 572.235294h30.117647v30.117647h-30.117647zM180.705882 602.352941h30.117647v30.117647h-30.117647zM180.705882 632.470588h30.117647v30.117647h-30.117647zM180.705882 662.588235h30.117647v30.117647h-30.117647zM180.705882 692.705882h30.117647v30.117647h-30.117647zM180.705882 722.823529h30.117647v30.117647h-30.117647zM180.705882 752.941176h30.117647v30.117648h-30.117647zM180.705882 783.058824h30.117647v30.117647h-30.117647z"
        fill="#FFD908" p-id="2711"></path>
    <path d="M180.705882 783.058824h30.117647v30.117647h-30.117647z" fill="#FFD908" p-id="2712"></path>
    <path d="M180.705882 783.058824h30.117647v30.117647h-30.117647z" fill="#FFD908" p-id="2713"></path>
    <path
        d="M180.705882 813.176471h30.117647v30.117647h-30.117647zM180.705882 843.294118h30.117647v30.117647h-30.117647z"
        fill="#FBFD04" p-id="2714"></path>
    <path d="M210.823529 120.470588h30.117647v30.117647h-30.117647z" fill="#FFD908" p-id="2715"></path>
    <path
        d="M210.823529 150.588235h30.117647v30.117647h-30.117647zM210.823529 180.705882h30.117647v30.117647h-30.117647z"
        fill="#FFB902" p-id="2716"></path>
    <path
        d="M210.823529 210.823529h30.117647v30.117647h-30.117647zM210.823529 240.941176h30.117647v30.117648h-30.117647zM210.823529 271.058824h30.117647v30.117647h-30.117647zM210.823529 301.176471h30.117647v30.117647h-30.117647zM210.823529 331.294118h30.117647v30.117647h-30.117647zM210.823529 361.411765h30.117647v30.117647h-30.117647zM210.823529 391.529412h30.117647v30.117647h-30.117647zM210.823529 421.647059h30.117647v30.117647h-30.117647zM210.823529 451.764706h30.117647v30.117647h-30.117647zM210.823529 481.882353h30.117647v30.117647h-30.117647zM210.823529 512h30.117647v30.117647h-30.117647zM210.823529 542.117647h30.117647v30.117647h-30.117647zM210.823529 572.235294h30.117647v30.117647h-30.117647zM210.823529 602.352941h30.117647v30.117647h-30.117647zM210.823529 632.470588h30.117647v30.117647h-30.117647zM210.823529 662.588235h30.117647v30.117647h-30.117647zM210.823529 692.705882h30.117647v30.117647h-30.117647zM210.823529 722.823529h30.117647v30.117647h-30.117647zM210.823529 752.941176h30.117647v30.117648h-30.117647zM210.823529 783.058824h30.117647v30.117647h-30.117647z"
        fill="#FFD908" p-id="2717"></path>
    <path d="M210.823529 783.058824h30.117647v30.117647h-30.117647z" fill="#FFD908" p-id="2718"></path>
    <path d="M210.823529 783.058824h30.117647v30.117647h-30.117647z" fill="#FFD908" p-id="2719"></path>
    <path
        d="M210.823529 813.176471h30.117647v30.117647h-30.117647zM210.823529 843.294118h30.117647v30.117647h-30.117647z"
        fill="#FFB902" p-id="2720"></path>
    <path
        d="M210.823529 873.411765h30.117647v30.117647h-30.117647zM240.941176 120.470588h30.117648v30.117647h-30.117648zM240.941176 150.588235h30.117648v30.117647h-30.117648zM240.941176 180.705882h30.117648v30.117647h-30.117648zM240.941176 210.823529h30.117648v30.117647h-30.117648zM240.941176 240.941176h30.117648v30.117648h-30.117648zM240.941176 271.058824h30.117648v30.117647h-30.117648zM240.941176 301.176471h30.117648v30.117647h-30.117648zM240.941176 331.294118h30.117648v30.117647h-30.117648zM240.941176 361.411765h30.117648v30.117647h-30.117648zM240.941176 391.529412h30.117648v30.117647h-30.117648zM240.941176 421.647059h30.117648v30.117647h-30.117648zM240.941176 451.764706h30.117648v30.117647h-30.117648zM240.941176 481.882353h30.117648v30.117647h-30.117648zM240.941176 512h30.117648v30.117647h-30.117648zM240.941176 542.117647h30.117648v30.117647h-30.117648zM240.941176 572.235294h30.117648v30.117647h-30.117648zM240.941176 602.352941h30.117648v30.117647h-30.117648zM240.941176 632.470588h30.117648v30.117647h-30.117648zM240.941176 662.588235h30.117648v30.117647h-30.117648zM240.941176 692.705882h30.117648v30.117647h-30.117648zM240.941176 722.823529h30.117648v30.117647h-30.117648zM240.941176 752.941176h30.117648v30.117648h-30.117648zM240.941176 783.058824h30.117648v30.117647h-30.117648z"
        fill="#FFD908" p-id="2721"></path>
    <path d="M240.941176 783.058824h30.117648v30.117647h-30.117648z" fill="#FFD908" p-id="2722"></path>
    <path
        d="M240.941176 783.058824h30.117648v30.117647h-30.117648zM240.941176 813.176471h30.117648v30.117647h-30.117648zM240.941176 843.294118h30.117648v30.117647h-30.117648zM240.941176 873.411765h30.117648v30.117647h-30.117648zM271.058824 120.470588h30.117647v30.117647h-30.117647zM271.058824 150.588235h30.117647v30.117647h-30.117647zM271.058824 180.705882h30.117647v30.117647h-30.117647zM271.058824 210.823529h30.117647v30.117647h-30.117647zM271.058824 240.941176h30.117647v30.117648h-30.117647zM271.058824 271.058824h30.117647v30.117647h-30.117647z"
        fill="#FFD908" p-id="2723"></path>
    <path d="M271.058824 301.176471h30.117647v30.117647h-30.117647z" fill="#FFFFFF" p-id="2724"></path>
    <path d="M271.058824 331.294118h30.117647v30.117647h-30.117647z" fill="#FBFD04" p-id="2725"></path>
    <path
        d="M271.058824 361.411765h30.117647v30.117647h-30.117647zM271.058824 391.529412h30.117647v30.117647h-30.117647zM271.058824 421.647059h30.117647v30.117647h-30.117647zM271.058824 451.764706h30.117647v30.117647h-30.117647zM271.058824 481.882353h30.117647v30.117647h-30.117647zM271.058824 512h30.117647v30.117647h-30.117647zM271.058824 542.117647h30.117647v30.117647h-30.117647zM271.058824 572.235294h30.117647v30.117647h-30.117647zM271.058824 602.352941h30.117647v30.117647h-30.117647zM271.058824 632.470588h30.117647v30.117647h-30.117647zM271.058824 662.588235h30.117647v30.117647h-30.117647zM271.058824 692.705882h30.117647v30.117647h-30.117647zM271.058824 722.823529h30.117647v30.117647h-30.117647zM271.058824 752.941176h30.117647v30.117648h-30.117647zM271.058824 783.058824h30.117647v30.117647h-30.117647z"
        fill="#FFD908" p-id="2726"></path>
    <path d="M271.058824 783.058824h30.117647v30.117647h-30.117647z" fill="#FFD908" p-id="2727"></path>
    <path
        d="M271.058824 783.058824h30.117647v30.117647h-30.117647zM271.058824 813.176471h30.117647v30.117647h-30.117647zM271.058824 843.294118h30.117647v30.117647h-30.117647zM271.058824 873.411765h30.117647v30.117647h-30.117647zM301.176471 120.470588h30.117647v30.117647h-30.117647zM301.176471 150.588235h30.117647v30.117647h-30.117647zM301.176471 180.705882h30.117647v30.117647h-30.117647zM301.176471 210.823529h30.117647v30.117647h-30.117647z"
        fill="#FFD908" p-id="2728"></path>
    <path
        d="M301.176471 240.941176h30.117647v30.117648h-30.117647zM301.176471 271.058824h30.117647v30.117647h-30.117647z"
        fill="#FFFFFF" p-id="2729"></path>
    <path
        d="M301.176471 301.176471h30.117647v30.117647h-30.117647zM301.176471 331.294118h30.117647v30.117647h-30.117647zM301.176471 361.411765h30.117647v30.117647h-30.117647z"
        fill="#FBFD04" p-id="2730"></path>
    <path
        d="M301.176471 391.529412h30.117647v30.117647h-30.117647zM301.176471 421.647059h30.117647v30.117647h-30.117647zM301.176471 451.764706h30.117647v30.117647h-30.117647zM301.176471 481.882353h30.117647v30.117647h-30.117647zM301.176471 512h30.117647v30.117647h-30.117647zM301.176471 542.117647h30.117647v30.117647h-30.117647zM301.176471 572.235294h30.117647v30.117647h-30.117647zM301.176471 602.352941h30.117647v30.117647h-30.117647zM301.176471 632.470588h30.117647v30.117647h-30.117647zM301.176471 662.588235h30.117647v30.117647h-30.117647zM301.176471 692.705882h30.117647v30.117647h-30.117647zM301.176471 722.823529h30.117647v30.117647h-30.117647zM301.176471 752.941176h30.117647v30.117648h-30.117647zM301.176471 783.058824h30.117647v30.117647h-30.117647z"
        fill="#FFD908" p-id="2731"></path>
    <path d="M301.176471 783.058824h30.117647v30.117647h-30.117647z" fill="#FFD908" p-id="2732"></path>
    <path
        d="M301.176471 783.058824h30.117647v30.117647h-30.117647zM301.176471 813.176471h30.117647v30.117647h-30.117647zM301.176471 843.294118h30.117647v30.117647h-30.117647zM301.176471 873.411765h30.117647v30.117647h-30.117647zM331.294118 120.470588h30.117647v30.117647h-30.117647zM331.294118 150.588235h30.117647v30.117647h-30.117647z"
        fill="#FFD908" p-id="2733"></path>
    <path
        d="M331.294118 180.705882h30.117647v30.117647h-30.117647zM331.294118 210.823529h30.117647v30.117647h-30.117647z"
        fill="#FFFFFF" p-id="2734"></path>
    <path
        d="M331.294118 240.941176h30.117647v30.117648h-30.117647zM331.294118 271.058824h30.117647v30.117647h-30.117647zM331.294118 301.176471h30.117647v30.117647h-30.117647zM331.294118 331.294118h30.117647v30.117647h-30.117647zM331.294118 361.411765h30.117647v30.117647h-30.117647zM331.294118 391.529412h30.117647v30.117647h-30.117647z"
        fill="#FBFD04" p-id="2735"></path>
    <path d="M331.294118 421.647059h30.117647v30.117647h-30.117647z" fill="#FFB902" p-id="2736"></path>
    <path
        d="M331.294118 451.764706h30.117647v30.117647h-30.117647zM331.294118 481.882353h30.117647v30.117647h-30.117647zM331.294118 512h30.117647v30.117647h-30.117647zM331.294118 542.117647h30.117647v30.117647h-30.117647zM331.294118 572.235294h30.117647v30.117647h-30.117647zM331.294118 602.352941h30.117647v30.117647h-30.117647zM331.294118 632.470588h30.117647v30.117647h-30.117647zM331.294118 662.588235h30.117647v30.117647h-30.117647zM331.294118 692.705882h30.117647v30.117647h-30.117647zM331.294118 722.823529h30.117647v30.117647h-30.117647zM331.294118 752.941176h30.117647v30.117648h-30.117647zM331.294118 783.058824h30.117647v30.117647h-30.117647z"
        fill="#FFD908" p-id="2737"></path>
    <path d="M331.294118 783.058824h30.117647v30.117647h-30.117647z" fill="#FFD908" p-id="2738"></path>
    <path
        d="M331.294118 783.058824h30.117647v30.117647h-30.117647zM331.294118 813.176471h30.117647v30.117647h-30.117647zM331.294118 843.294118h30.117647v30.117647h-30.117647zM331.294118 873.411765h30.117647v30.117647h-30.117647zM361.411765 120.470588h30.117647v30.117647h-30.117647zM361.411765 150.588235h30.117647v30.117647h-30.117647z"
        fill="#FFD908" p-id="2739"></path>
    <path d="M361.411765 180.705882h30.117647v30.117647h-30.117647z" fill="#FFFFFF" p-id="2740"></path>
    <path
        d="M361.411765 210.823529h30.117647v30.117647h-30.117647zM361.411765 240.941176h30.117647v30.117648h-30.117647zM361.411765 271.058824h30.117647v30.117647h-30.117647zM361.411765 301.176471h30.117647v30.117647h-30.117647zM361.411765 331.294118h30.117647v30.117647h-30.117647zM361.411765 361.411765h30.117647v30.117647h-30.117647zM361.411765 391.529412h30.117647v30.117647h-30.117647z"
        fill="#FBFD04" p-id="2741"></path>
    <path d="M361.411765 421.647059h30.117647v30.117647h-30.117647z" fill="#FFB902" p-id="2742"></path>
    <path
        d="M361.411765 451.764706h30.117647v30.117647h-30.117647zM361.411765 481.882353h30.117647v30.117647h-30.117647zM361.411765 512h30.117647v30.117647h-30.117647zM361.411765 542.117647h30.117647v30.117647h-30.117647zM361.411765 572.235294h30.117647v30.117647h-30.117647zM361.411765 602.352941h30.117647v30.117647h-30.117647zM361.411765 632.470588h30.117647v30.117647h-30.117647zM361.411765 662.588235h30.117647v30.117647h-30.117647zM361.411765 692.705882h30.117647v30.117647h-30.117647zM361.411765 722.823529h30.117647v30.117647h-30.117647zM361.411765 752.941176h30.117647v30.117648h-30.117647zM361.411765 783.058824h30.117647v30.117647h-30.117647z"
        fill="#FFD908" p-id="2743"></path>
    <path d="M361.411765 783.058824h30.117647v30.117647h-30.117647z" fill="#FFD908" p-id="2744"></path>
    <path
        d="M361.411765 783.058824h30.117647v30.117647h-30.117647zM361.411765 813.176471h30.117647v30.117647h-30.117647zM361.411765 843.294118h30.117647v30.117647h-30.117647zM361.411765 873.411765h30.117647v30.117647h-30.117647zM391.529412 120.470588h30.117647v30.117647h-30.117647z"
        fill="#FFD908" p-id="2745"></path>
    <path d="M391.529412 150.588235h30.117647v30.117647h-30.117647z" fill="#FFFFFF" p-id="2746"></path>
    <path
        d="M391.529412 180.705882h30.117647v30.117647h-30.117647zM391.529412 210.823529h30.117647v30.117647h-30.117647zM391.529412 240.941176h30.117647v30.117648h-30.117647z"
        fill="#FBFD04" p-id="2747"></path>
    <path
        d="M391.529412 271.058824h30.117647v30.117647h-30.117647zM391.529412 301.176471h30.117647v30.117647h-30.117647z"
        fill="#FFB902" p-id="2748"></path>
    <path
        d="M391.529412 331.294118h30.117647v30.117647h-30.117647zM391.529412 361.411765h30.117647v30.117647h-30.117647z"
        fill="#FBFD04" p-id="2749"></path>
    <path d="M391.529412 391.529412h30.117647v30.117647h-30.117647z" fill="#FFB902" p-id="2750"></path>
    <path
        d="M391.529412 421.647059h30.117647v30.117647h-30.117647zM391.529412 451.764706h30.117647v30.117647h-30.117647zM391.529412 481.882353h30.117647v30.117647h-30.117647zM391.529412 512h30.117647v30.117647h-30.117647zM391.529412 542.117647h30.117647v30.117647h-30.117647zM391.529412 572.235294h30.117647v30.117647h-30.117647zM391.529412 602.352941h30.117647v30.117647h-30.117647zM391.529412 632.470588h30.117647v30.117647h-30.117647zM391.529412 662.588235h30.117647v30.117647h-30.117647zM391.529412 692.705882h30.117647v30.117647h-30.117647zM391.529412 722.823529h30.117647v30.117647h-30.117647zM391.529412 752.941176h30.117647v30.117648h-30.117647zM391.529412 783.058824h30.117647v30.117647h-30.117647z"
        fill="#FFD908" p-id="2751"></path>
    <path d="M391.529412 783.058824h30.117647v30.117647h-30.117647z" fill="#FFD908" p-id="2752"></path>
    <path
        d="M391.529412 783.058824h30.117647v30.117647h-30.117647zM391.529412 813.176471h30.117647v30.117647h-30.117647zM391.529412 843.294118h30.117647v30.117647h-30.117647zM391.529412 873.411765h30.117647v30.117647h-30.117647zM421.647059 120.470588h30.117647v30.117647h-30.117647z"
        fill="#FFD908" p-id="2753"></path>
    <path d="M421.647059 150.588235h30.117647v30.117647h-30.117647z" fill="#FFFFFF" p-id="2754"></path>
    <path
        d="M421.647059 180.705882h30.117647v30.117647h-30.117647zM421.647059 210.823529h30.117647v30.117647h-30.117647z"
        fill="#FBFD04" p-id="2755"></path>
    <path d="M421.647059 240.941176h30.117647v30.117648h-30.117647z" fill="#FFB902" p-id="2756"></path>
    <path
        d="M421.647059 271.058824h30.117647v30.117647h-30.117647zM421.647059 301.176471h30.117647v30.117647h-30.117647z"
        fill="#FFD908" p-id="2757"></path>
    <path
        d="M421.647059 331.294118h30.117647v30.117647h-30.117647zM421.647059 361.411765h30.117647v30.117647h-30.117647z"
        fill="#FFB902" p-id="2758"></path>
    <path
        d="M421.647059 391.529412h30.117647v30.117647h-30.117647zM421.647059 421.647059h30.117647v30.117647h-30.117647zM421.647059 451.764706h30.117647v30.117647h-30.117647zM421.647059 481.882353h30.117647v30.117647h-30.117647zM421.647059 512h30.117647v30.117647h-30.117647zM421.647059 542.117647h30.117647v30.117647h-30.117647zM421.647059 572.235294h30.117647v30.117647h-30.117647zM421.647059 602.352941h30.117647v30.117647h-30.117647zM421.647059 632.470588h30.117647v30.117647h-30.117647zM421.647059 662.588235h30.117647v30.117647h-30.117647zM421.647059 692.705882h30.117647v30.117647h-30.117647zM421.647059 722.823529h30.117647v30.117647h-30.117647zM421.647059 752.941176h30.117647v30.117648h-30.117647zM421.647059 783.058824h30.117647v30.117647h-30.117647z"
        fill="#FFD908" p-id="2759"></path>
    <path d="M421.647059 783.058824h30.117647v30.117647h-30.117647z" fill="#FFD908" p-id="2760"></path>
    <path
        d="M421.647059 783.058824h30.117647v30.117647h-30.117647zM421.647059 813.176471h30.117647v30.117647h-30.117647zM421.647059 843.294118h30.117647v30.117647h-30.117647zM421.647059 873.411765h30.117647v30.117647h-30.117647zM451.764706 120.470588h30.117647v30.117647h-30.117647z"
        fill="#FFD908" p-id="2761"></path>
    <path
        d="M451.764706 150.588235h30.117647v30.117647h-30.117647zM451.764706 180.705882h30.117647v30.117647h-30.117647zM451.764706 210.823529h30.117647v30.117647h-30.117647z"
        fill="#FBFD04" p-id="2762"></path>
    <path d="M451.764706 240.941176h30.117647v30.117648h-30.117647z" fill="#FFB902" p-id="2763"></path>
    <path
        d="M451.764706 271.058824h30.117647v30.117647h-30.117647zM451.764706 301.176471h30.117647v30.117647h-30.117647zM451.764706 331.294118h30.117647v30.117647h-30.117647zM451.764706 361.411765h30.117647v30.117647h-30.117647zM451.764706 391.529412h30.117647v30.117647h-30.117647zM451.764706 421.647059h30.117647v30.117647h-30.117647zM451.764706 451.764706h30.117647v30.117647h-30.117647zM451.764706 481.882353h30.117647v30.117647h-30.117647zM451.764706 512h30.117647v30.117647h-30.117647zM451.764706 542.117647h30.117647v30.117647h-30.117647z"
        fill="#FFD908" p-id="2764"></path>
    <path
        d="M451.764706 572.235294h30.117647v30.117647h-30.117647zM451.764706 602.352941h30.117647v30.117647h-30.117647zM451.764706 632.470588h30.117647v30.117647h-30.117647z"
        fill="#FBFD04" p-id="2765"></path>
    <path d="M451.764706 662.588235h30.117647v30.117647h-30.117647z" fill="#FFB902" p-id="2766"></path>
    <path d="M451.764706 692.705882h30.117647v30.117647h-30.117647z" fill="#FFD908" p-id="2767"></path>
    <path d="M451.764706 722.823529h30.117647v30.117647h-30.117647z" fill="#FBFD04" p-id="2768"></path>
    <path d="M451.764706 752.941176h30.117647v30.117648h-30.117647z" fill="#FFFFFF" p-id="2769"></path>
    <path d="M451.764706 783.058824h30.117647v30.117647h-30.117647z" fill="#FFD908" p-id="2770"></path>
    <path d="M451.764706 783.058824h30.117647v30.117647h-30.117647z" fill="#FFD908" p-id="2771"></path>
    <path
        d="M451.764706 783.058824h30.117647v30.117647h-30.117647zM451.764706 813.176471h30.117647v30.117647h-30.117647z"
        fill="#FFFFFF" p-id="2772"></path>
    <path d="M451.764706 843.294118h30.117647v30.117647h-30.117647z" fill="#FFB902" p-id="2773"></path>
    <path
        d="M451.764706 873.411765h30.117647v30.117647h-30.117647zM481.882353 120.470588h30.117647v30.117647h-30.117647z"
        fill="#FFD908" p-id="2774"></path>
    <path
        d="M481.882353 150.588235h30.117647v30.117647h-30.117647zM481.882353 180.705882h30.117647v30.117647h-30.117647zM481.882353 210.823529h30.117647v30.117647h-30.117647z"
        fill="#FBFD04" p-id="2775"></path>
    <path d="M481.882353 240.941176h30.117647v30.117648h-30.117647z" fill="#FFB902" p-id="2776"></path>
    <path
        d="M481.882353 271.058824h30.117647v30.117647h-30.117647zM481.882353 301.176471h30.117647v30.117647h-30.117647zM481.882353 331.294118h30.117647v30.117647h-30.117647zM481.882353 361.411765h30.117647v30.117647h-30.117647zM481.882353 391.529412h30.117647v30.117647h-30.117647zM481.882353 421.647059h30.117647v30.117647h-30.117647zM481.882353 451.764706h30.117647v30.117647h-30.117647zM481.882353 481.882353h30.117647v30.117647h-30.117647z"
        fill="#FFD908" p-id="2777"></path>
    <path
        d="M481.882353 512h30.117647v30.117647h-30.117647zM481.882353 542.117647h30.117647v30.117647h-30.117647zM481.882353 572.235294h30.117647v30.117647h-30.117647zM481.882353 602.352941h30.117647v30.117647h-30.117647zM481.882353 632.470588h30.117647v30.117647h-30.117647z"
        fill="#FBFD04" p-id="2778"></path>
    <path d="M481.882353 662.588235h30.117647v30.117647h-30.117647z" fill="#FFB902" p-id="2779"></path>
    <path d="M481.882353 692.705882h30.117647v30.117647h-30.117647z" fill="#FFD908" p-id="2780"></path>
    <path
        d="M481.882353 722.823529h30.117647v30.117647h-30.117647zM481.882353 752.941176h30.117647v30.117648h-30.117647z"
        fill="#FBFD04" p-id="2781"></path>
    <path d="M481.882353 783.058824h30.117647v30.117647h-30.117647z" fill="#FFD908" p-id="2782"></path>
    <path d="M481.882353 783.058824h30.117647v30.117647h-30.117647z" fill="#FFD908" p-id="2783"></path>
    <path
        d="M481.882353 783.058824h30.117647v30.117647h-30.117647zM481.882353 813.176471h30.117647v30.117647h-30.117647z"
        fill="#FBFD04" p-id="2784"></path>
    <path d="M481.882353 843.294118h30.117647v30.117647h-30.117647z" fill="#FFB902" p-id="2785"></path>
    <path
        d="M481.882353 873.411765h30.117647v30.117647h-30.117647zM512 120.470588h30.117647v30.117647h-30.117647z"
        fill="#FFD908" p-id="2786"></path>
    <path
        d="M512 150.588235h30.117647v30.117647h-30.117647zM512 180.705882h30.117647v30.117647h-30.117647zM512 210.823529h30.117647v30.117647h-30.117647z"
        fill="#FBFD04" p-id="2787"></path>
    <path d="M512 240.941176h30.117647v30.117648h-30.117647z" fill="#FFB902" p-id="2788"></path>
    <path
        d="M512 271.058824h30.117647v30.117647h-30.117647zM512 301.176471h30.117647v30.117647h-30.117647zM512 331.294118h30.117647v30.117647h-30.117647zM512 361.411765h30.117647v30.117647h-30.117647zM512 391.529412h30.117647v30.117647h-30.117647zM512 421.647059h30.117647v30.117647h-30.117647z"
        fill="#FFD908" p-id="2789"></path>
    <path
        d="M512 451.764706h30.117647v30.117647h-30.117647zM512 481.882353h30.117647v30.117647h-30.117647zM512 512h30.117647v30.117647h-30.117647zM512 542.117647h30.117647v30.117647h-30.117647zM512 572.235294h30.117647v30.117647h-30.117647zM512 602.352941h30.117647v30.117647h-30.117647z"
        fill="#FBFD04" p-id="2790"></path>
    <path d="M512 632.470588h30.117647v30.117647h-30.117647z" fill="#FFFFFF" p-id="2791"></path>
    <path d="M512 662.588235h30.117647v30.117647h-30.117647z" fill="#FFB902" p-id="2792"></path>
    <path d="M512 692.705882h30.117647v30.117647h-30.117647z" fill="#FFD908" p-id="2793"></path>
    <path
        d="M512 722.823529h30.117647v30.117647h-30.117647zM512 752.941176h30.117647v30.117648h-30.117647z"
        fill="#FBFD04" p-id="2794"></path>
    <path d="M512 783.058824h30.117647v30.117647h-30.117647z" fill="#FFD908" p-id="2795"></path>
    <path d="M512 783.058824h30.117647v30.117647h-30.117647z" fill="#FFD908" p-id="2796"></path>
    <path
        d="M512 783.058824h30.117647v30.117647h-30.117647zM512 813.176471h30.117647v30.117647h-30.117647z"
        fill="#FBFD04" p-id="2797"></path>
    <path d="M512 843.294118h30.117647v30.117647h-30.117647z" fill="#FFB902" p-id="2798"></path>
    <path
        d="M512 873.411765h30.117647v30.117647h-30.117647zM542.117647 120.470588h30.117647v30.117647h-30.117647z"
        fill="#FFD908" p-id="2799"></path>
    <path
        d="M542.117647 150.588235h30.117647v30.117647h-30.117647zM542.117647 180.705882h30.117647v30.117647h-30.117647zM542.117647 210.823529h30.117647v30.117647h-30.117647z"
        fill="#FBFD04" p-id="2800"></path>
    <path d="M542.117647 240.941176h30.117647v30.117648h-30.117647z" fill="#FFB902" p-id="2801"></path>
    <path
        d="M542.117647 271.058824h30.117647v30.117647h-30.117647zM542.117647 301.176471h30.117647v30.117647h-30.117647zM542.117647 331.294118h30.117647v30.117647h-30.117647zM542.117647 361.411765h30.117647v30.117647h-30.117647zM542.117647 391.529412h30.117647v30.117647h-30.117647zM542.117647 421.647059h30.117647v30.117647h-30.117647z"
        fill="#FFD908" p-id="2802"></path>
    <path
        d="M542.117647 451.764706h30.117647v30.117647h-30.117647zM542.117647 481.882353h30.117647v30.117647h-30.117647zM542.117647 512h30.117647v30.117647h-30.117647zM542.117647 542.117647h30.117647v30.117647h-30.117647zM542.117647 572.235294h30.117647v30.117647h-30.117647z"
        fill="#FBFD04" p-id="2803"></path>
    <path
        d="M542.117647 602.352941h30.117647v30.117647h-30.117647zM542.117647 632.470588h30.117647v30.117647h-30.117647z"
        fill="#FFFFFF" p-id="2804"></path>
    <path d="M542.117647 662.588235h30.117647v30.117647h-30.117647z" fill="#FFB902" p-id="2805"></path>
    <path d="M542.117647 692.705882h30.117647v30.117647h-30.117647z" fill="#FFD908" p-id="2806"></path>
    <path
        d="M542.117647 722.823529h30.117647v30.117647h-30.117647zM542.117647 752.941176h30.117647v30.117648h-30.117647z"
        fill="#FBFD04" p-id="2807"></path>
    <path d="M542.117647 783.058824h30.117647v30.117647h-30.117647z" fill="#FFD908" p-id="2808"></path>
    <path d="M542.117647 783.058824h30.117647v30.117647h-30.117647z" fill="#FFD908" p-id="2809"></path>
    <path
        d="M542.117647 783.058824h30.117647v30.117647h-30.117647zM542.117647 813.176471h30.117647v30.117647h-30.117647z"
        fill="#FBFD04" p-id="2810"></path>
    <path d="M542.117647 843.294118h30.117647v30.117647h-30.117647z" fill="#FFB902" p-id="2811"></path>
    <path
        d="M542.117647 873.411765h30.117647v30.117647h-30.117647zM572.235294 120.470588h30.117647v30.117647h-30.117647z"
        fill="#FFD908" p-id="2812"></path>
    <path
        d="M572.235294 150.588235h30.117647v30.117647h-30.117647zM572.235294 180.705882h30.117647v30.117647h-30.117647zM572.235294 210.823529h30.117647v30.117647h-30.117647z"
        fill="#FBFD04" p-id="2813"></path>
    <path d="M572.235294 240.941176h30.117647v30.117648h-30.117647z" fill="#FFB902" p-id="2814"></path>
    <path
        d="M572.235294 271.058824h30.117647v30.117647h-30.117647zM572.235294 301.176471h30.117647v30.117647h-30.117647zM572.235294 331.294118h30.117647v30.117647h-30.117647zM572.235294 361.411765h30.117647v30.117647h-30.117647zM572.235294 391.529412h30.117647v30.117647h-30.117647zM572.235294 421.647059h30.117647v30.117647h-30.117647z"
        fill="#FFD908" p-id="2815"></path>
    <path
        d="M572.235294 451.764706h30.117647v30.117647h-30.117647zM572.235294 481.882353h30.117647v30.117647h-30.117647zM572.235294 512h30.117647v30.117647h-30.117647z"
        fill="#FBFD04" p-id="2816"></path>
    <path
        d="M572.235294 542.117647h30.117647v30.117647h-30.117647zM572.235294 572.235294h30.117647v30.117647h-30.117647zM572.235294 602.352941h30.117647v30.117647h-30.117647zM572.235294 632.470588h30.117647v30.117647h-30.117647zM572.235294 662.588235h30.117647v30.117647h-30.117647z"
        fill="#FFB902" p-id="2817"></path>
    <path d="M572.235294 692.705882h30.117647v30.117647h-30.117647z" fill="#FFD908" p-id="2818"></path>
    <path
        d="M572.235294 722.823529h30.117647v30.117647h-30.117647zM572.235294 752.941176h30.117647v30.117648h-30.117647z"
        fill="#FFB902" p-id="2819"></path>
    <path d="M572.235294 783.058824h30.117647v30.117647h-30.117647z" fill="#FFD908" p-id="2820"></path>
    <path d="M572.235294 783.058824h30.117647v30.117647h-30.117647z" fill="#FFD908" p-id="2821"></path>
    <path
        d="M572.235294 783.058824h30.117647v30.117647h-30.117647zM572.235294 813.176471h30.117647v30.117647h-30.117647zM572.235294 843.294118h30.117647v30.117647h-30.117647z"
        fill="#FFB902" p-id="2822"></path>
    <path
        d="M572.235294 873.411765h30.117647v30.117647h-30.117647zM602.352941 120.470588h30.117647v30.117647h-30.117647z"
        fill="#FFD908" p-id="2823"></path>
    <path d="M602.352941 150.588235h30.117647v30.117647h-30.117647z" fill="#FFB902" p-id="2824"></path>
    <path
        d="M602.352941 180.705882h30.117647v30.117647h-30.117647zM602.352941 210.823529h30.117647v30.117647h-30.117647zM602.352941 240.941176h30.117647v30.117648h-30.117647z"
        fill="#FBFD04" p-id="2825"></path>
    <path d="M602.352941 271.058824h30.117647v30.117647h-30.117647z" fill="#FFB902" p-id="2826"></path>
    <path
        d="M602.352941 301.176471h30.117647v30.117647h-30.117647zM602.352941 331.294118h30.117647v30.117647h-30.117647zM602.352941 361.411765h30.117647v30.117647h-30.117647zM602.352941 391.529412h30.117647v30.117647h-30.117647z"
        fill="#FFD908" p-id="2827"></path>
    <path
        d="M602.352941 421.647059h30.117647v30.117647h-30.117647zM602.352941 451.764706h30.117647v30.117647h-30.117647zM602.352941 481.882353h30.117647v30.117647h-30.117647z"
        fill="#FBFD04" p-id="2828"></path>
    <path d="M602.352941 512h30.117647v30.117647h-30.117647z" fill="#FFB902" p-id="2829"></path>
    <path
        d="M602.352941 542.117647h30.117647v30.117647h-30.117647zM602.352941 572.235294h30.117647v30.117647h-30.117647zM602.352941 602.352941h30.117647v30.117647h-30.117647zM602.352941 632.470588h30.117647v30.117647h-30.117647zM602.352941 662.588235h30.117647v30.117647h-30.117647zM602.352941 692.705882h30.117647v30.117647h-30.117647zM602.352941 722.823529h30.117647v30.117647h-30.117647zM602.352941 752.941176h30.117647v30.117648h-30.117647zM602.352941 783.058824h30.117647v30.117647h-30.117647z"
        fill="#FFD908" p-id="2830"></path>
    <path d="M602.352941 783.058824h30.117647v30.117647h-30.117647z" fill="#FFD908" p-id="2831"></path>
    <path
        d="M602.352941 783.058824h30.117647v30.117647h-30.117647zM602.352941 813.176471h30.117647v30.117647h-30.117647zM602.352941 843.294118h30.117647v30.117647h-30.117647zM602.352941 873.411765h30.117647v30.117647h-30.117647zM632.470588 120.470588h30.117647v30.117647h-30.117647z"
        fill="#FFD908" p-id="2832"></path>
    <path d="M632.470588 150.588235h30.117647v30.117647h-30.117647z" fill="#FFB902" p-id="2833"></path>
    <path
        d="M632.470588 180.705882h30.117647v30.117647h-30.117647zM632.470588 210.823529h30.117647v30.117647h-30.117647zM632.470588 240.941176h30.117647v30.117648h-30.117647zM632.470588 271.058824h30.117647v30.117647h-30.117647zM632.470588 301.176471h30.117647v30.117647h-30.117647zM632.470588 331.294118h30.117647v30.117647h-30.117647zM632.470588 361.411765h30.117647v30.117647h-30.117647zM632.470588 391.529412h30.117647v30.117647h-30.117647zM632.470588 421.647059h30.117647v30.117647h-30.117647zM632.470588 451.764706h30.117647v30.117647h-30.117647zM632.470588 481.882353h30.117647v30.117647h-30.117647z"
        fill="#FBFD04" p-id="2834"></path>
    <path d="M632.470588 512h30.117647v30.117647h-30.117647z" fill="#FFB902" p-id="2835"></path>
    <path
        d="M632.470588 542.117647h30.117647v30.117647h-30.117647zM632.470588 572.235294h30.117647v30.117647h-30.117647zM632.470588 602.352941h30.117647v30.117647h-30.117647zM632.470588 632.470588h30.117647v30.117647h-30.117647zM632.470588 662.588235h30.117647v30.117647h-30.117647zM632.470588 692.705882h30.117647v30.117647h-30.117647zM632.470588 722.823529h30.117647v30.117647h-30.117647zM632.470588 752.941176h30.117647v30.117648h-30.117647zM632.470588 783.058824h30.117647v30.117647h-30.117647z"
        fill="#FFD908" p-id="2836"></path>
    <path d="M632.470588 783.058824h30.117647v30.117647h-30.117647z" fill="#FFD908" p-id="2837"></path>
    <path
        d="M632.470588 783.058824h30.117647v30.117647h-30.117647zM632.470588 813.176471h30.117647v30.117647h-30.117647zM632.470588 843.294118h30.117647v30.117647h-30.117647zM632.470588 873.411765h30.117647v30.117647h-30.117647zM662.588235 120.470588h30.117647v30.117647h-30.117647zM662.588235 150.588235h30.117647v30.117647h-30.117647z"
        fill="#FFD908" p-id="2838"></path>
    <path d="M662.588235 180.705882h30.117647v30.117647h-30.117647z" fill="#FFB902" p-id="2839"></path>
    <path
        d="M662.588235 210.823529h30.117647v30.117647h-30.117647zM662.588235 240.941176h30.117647v30.117648h-30.117647zM662.588235 271.058824h30.117647v30.117647h-30.117647zM662.588235 301.176471h30.117647v30.117647h-30.117647zM662.588235 331.294118h30.117647v30.117647h-30.117647zM662.588235 361.411765h30.117647v30.117647h-30.117647z"
        fill="#FBFD04" p-id="2840"></path>
    <path
        d="M662.588235 391.529412h30.117647v30.117647h-30.117647zM662.588235 421.647059h30.117647v30.117647h-30.117647z"
        fill="#FFFFFF" p-id="2841"></path>
    <path d="M662.588235 451.764706h30.117647v30.117647h-30.117647z" fill="#FBFD04" p-id="2842"></path>
    <path d="M662.588235 481.882353h30.117647v30.117647h-30.117647z" fill="#FFB902" p-id="2843"></path>
    <path
        d="M662.588235 512h30.117647v30.117647h-30.117647zM662.588235 542.117647h30.117647v30.117647h-30.117647zM662.588235 572.235294h30.117647v30.117647h-30.117647zM662.588235 602.352941h30.117647v30.117647h-30.117647zM662.588235 632.470588h30.117647v30.117647h-30.117647zM662.588235 662.588235h30.117647v30.117647h-30.117647zM662.588235 692.705882h30.117647v30.117647h-30.117647zM662.588235 722.823529h30.117647v30.117647h-30.117647zM662.588235 752.941176h30.117647v30.117648h-30.117647zM662.588235 783.058824h30.117647v30.117647h-30.117647z"
        fill="#FFD908" p-id="2844"></path>
    <path d="M662.588235 783.058824h30.117647v30.117647h-30.117647z" fill="#FFD908" p-id="2845"></path>
    <path
        d="M662.588235 783.058824h30.117647v30.117647h-30.117647zM662.588235 813.176471h30.117647v30.117647h-30.117647zM662.588235 843.294118h30.117647v30.117647h-30.117647zM662.588235 873.411765h30.117647v30.117647h-30.117647zM692.705882 120.470588h30.117647v30.117647h-30.117647zM692.705882 150.588235h30.117647v30.117647h-30.117647zM692.705882 180.705882h30.117647v30.117647h-30.117647z"
        fill="#FFD908" p-id="2846"></path>
    <path
        d="M692.705882 210.823529h30.117647v30.117647h-30.117647zM692.705882 240.941176h30.117647v30.117648h-30.117647z"
        fill="#FFB902" p-id="2847"></path>
    <path
        d="M692.705882 271.058824h30.117647v30.117647h-30.117647zM692.705882 301.176471h30.117647v30.117647h-30.117647zM692.705882 331.294118h30.117647v30.117647h-30.117647z"
        fill="#FBFD04" p-id="2848"></path>
    <path
        d="M692.705882 361.411765h30.117647v30.117647h-30.117647zM692.705882 391.529412h30.117647v30.117647h-30.117647z"
        fill="#FFFFFF" p-id="2849"></path>
    <path
        d="M692.705882 421.647059h30.117647v30.117647h-30.117647zM692.705882 451.764706h30.117647v30.117647h-30.117647z"
        fill="#FFB902" p-id="2850"></path>
    <path
        d="M692.705882 481.882353h30.117647v30.117647h-30.117647zM692.705882 512h30.117647v30.117647h-30.117647zM692.705882 542.117647h30.117647v30.117647h-30.117647zM692.705882 572.235294h30.117647v30.117647h-30.117647zM692.705882 602.352941h30.117647v30.117647h-30.117647zM692.705882 632.470588h30.117647v30.117647h-30.117647zM692.705882 662.588235h30.117647v30.117647h-30.117647zM692.705882 692.705882h30.117647v30.117647h-30.117647zM692.705882 722.823529h30.117647v30.117647h-30.117647zM692.705882 752.941176h30.117647v30.117648h-30.117647zM692.705882 783.058824h30.117647v30.117647h-30.117647z"
        fill="#FFD908" p-id="2851"></path>
    <path d="M692.705882 783.058824h30.117647v30.117647h-30.117647z" fill="#FFD908" p-id="2852"></path>
    <path
        d="M692.705882 783.058824h30.117647v30.117647h-30.117647zM692.705882 813.176471h30.117647v30.117647h-30.117647zM692.705882 843.294118h30.117647v30.117647h-30.117647zM692.705882 873.411765h30.117647v30.117647h-30.117647zM722.823529 120.470588h30.117647v30.117647h-30.117647zM722.823529 150.588235h30.117647v30.117647h-30.117647zM722.823529 180.705882h30.117647v30.117647h-30.117647zM722.823529 210.823529h30.117647v30.117647h-30.117647zM722.823529 240.941176h30.117647v30.117648h-30.117647z"
        fill="#FFD908" p-id="2853"></path>
    <path
        d="M722.823529 271.058824h30.117647v30.117647h-30.117647zM722.823529 301.176471h30.117647v30.117647h-30.117647zM722.823529 331.294118h30.117647v30.117647h-30.117647zM722.823529 361.411765h30.117647v30.117647h-30.117647zM722.823529 391.529412h30.117647v30.117647h-30.117647z"
        fill="#FFB902" p-id="2854"></path>
    <path
        d="M722.823529 421.647059h30.117647v30.117647h-30.117647zM722.823529 451.764706h30.117647v30.117647h-30.117647zM722.823529 481.882353h30.117647v30.117647h-30.117647zM722.823529 512h30.117647v30.117647h-30.117647zM722.823529 542.117647h30.117647v30.117647h-30.117647zM722.823529 572.235294h30.117647v30.117647h-30.117647zM722.823529 602.352941h30.117647v30.117647h-30.117647zM722.823529 632.470588h30.117647v30.117647h-30.117647zM722.823529 662.588235h30.117647v30.117647h-30.117647zM722.823529 692.705882h30.117647v30.117647h-30.117647zM722.823529 722.823529h30.117647v30.117647h-30.117647zM722.823529 752.941176h30.117647v30.117648h-30.117647zM722.823529 783.058824h30.117647v30.117647h-30.117647z"
        fill="#FFD908" p-id="2855"></path>
    <path d="M722.823529 783.058824h30.117647v30.117647h-30.117647z" fill="#FFD908" p-id="2856"></path>
    <path
        d="M722.823529 783.058824h30.117647v30.117647h-30.117647zM722.823529 813.176471h30.117647v30.117647h-30.117647zM722.823529 843.294118h30.117647v30.117647h-30.117647zM722.823529 873.411765h30.117647v30.117647h-30.117647zM752.941176 120.470588h30.117648v30.117647h-30.117648zM752.941176 150.588235h30.117648v30.117647h-30.117648zM752.941176 180.705882h30.117648v30.117647h-30.117648zM752.941176 210.823529h30.117648v30.117647h-30.117648zM752.941176 240.941176h30.117648v30.117648h-30.117648zM752.941176 271.058824h30.117648v30.117647h-30.117648zM752.941176 301.176471h30.117648v30.117647h-30.117648zM752.941176 331.294118h30.117648v30.117647h-30.117648zM752.941176 361.411765h30.117648v30.117647h-30.117648zM752.941176 391.529412h30.117648v30.117647h-30.117648zM752.941176 421.647059h30.117648v30.117647h-30.117648zM752.941176 451.764706h30.117648v30.117647h-30.117648zM752.941176 481.882353h30.117648v30.117647h-30.117648zM752.941176 512h30.117648v30.117647h-30.117648zM752.941176 542.117647h30.117648v30.117647h-30.117648zM752.941176 572.235294h30.117648v30.117647h-30.117648zM752.941176 602.352941h30.117648v30.117647h-30.117648zM752.941176 632.470588h30.117648v30.117647h-30.117648zM752.941176 662.588235h30.117648v30.117647h-30.117648zM752.941176 692.705882h30.117648v30.117647h-30.117648zM752.941176 722.823529h30.117648v30.117647h-30.117648zM752.941176 752.941176h30.117648v30.117648h-30.117648zM752.941176 783.058824h30.117648v30.117647h-30.117648z"
        fill="#FFD908" p-id="2857"></path>
    <path d="M752.941176 783.058824h30.117648v30.117647h-30.117648z" fill="#FFD908" p-id="2858"></path>
    <path
        d="M752.941176 783.058824h30.117648v30.117647h-30.117648zM752.941176 813.176471h30.117648v30.117647h-30.117648zM752.941176 843.294118h30.117648v30.117647h-30.117648zM752.941176 873.411765h30.117648v30.117647h-30.117648zM783.058824 120.470588h30.117647v30.117647h-30.117647zM783.058824 150.588235h30.117647v30.117647h-30.117647zM783.058824 180.705882h30.117647v30.117647h-30.117647zM783.058824 210.823529h30.117647v30.117647h-30.117647zM783.058824 240.941176h30.117647v30.117648h-30.117647zM783.058824 271.058824h30.117647v30.117647h-30.117647zM783.058824 301.176471h30.117647v30.117647h-30.117647zM783.058824 331.294118h30.117647v30.117647h-30.117647zM783.058824 361.411765h30.117647v30.117647h-30.117647zM783.058824 391.529412h30.117647v30.117647h-30.117647zM783.058824 421.647059h30.117647v30.117647h-30.117647zM783.058824 451.764706h30.117647v30.117647h-30.117647zM783.058824 481.882353h30.117647v30.117647h-30.117647zM783.058824 512h30.117647v30.117647h-30.117647zM783.058824 542.117647h30.117647v30.117647h-30.117647zM783.058824 572.235294h30.117647v30.117647h-30.117647zM783.058824 602.352941h30.117647v30.117647h-30.117647zM783.058824 632.470588h30.117647v30.117647h-30.117647zM783.058824 662.588235h30.117647v30.117647h-30.117647zM783.058824 692.705882h30.117647v30.117647h-30.117647zM783.058824 722.823529h30.117647v30.117647h-30.117647zM783.058824 752.941176h30.117647v30.117648h-30.117647zM783.058824 783.058824h30.117647v30.117647h-30.117647z"
        fill="#FFD908" p-id="2859"></path>
    <path d="M783.058824 783.058824h30.117647v30.117647h-30.117647z" fill="#FFD908" p-id="2860"></path>
    <path
        d="M783.058824 783.058824h30.117647v30.117647h-30.117647zM783.058824 813.176471h30.117647v30.117647h-30.117647zM783.058824 843.294118h30.117647v30.117647h-30.117647zM783.058824 873.411765h30.117647v30.117647h-30.117647zM813.176471 120.470588h30.117647v30.117647h-30.117647z"
        fill="#FFD908" p-id="2861"></path>
    <path d="M813.176471 150.588235h30.117647v30.117647h-30.117647z" fill="#FFFFFF" p-id="2862"></path>
    <path d="M813.176471 180.705882h30.117647v30.117647h-30.117647z" fill="#FBFD04" p-id="2863"></path>
    <path d="M813.176471 210.823529h30.117647v30.117647h-30.117647z" fill="#FFB902" p-id="2864"></path>
    <path
        d="M813.176471 240.941176h30.117647v30.117648h-30.117647zM813.176471 271.058824h30.117647v30.117647h-30.117647zM813.176471 301.176471h30.117647v30.117647h-30.117647zM813.176471 331.294118h30.117647v30.117647h-30.117647zM813.176471 361.411765h30.117647v30.117647h-30.117647zM813.176471 391.529412h30.117647v30.117647h-30.117647zM813.176471 421.647059h30.117647v30.117647h-30.117647zM813.176471 451.764706h30.117647v30.117647h-30.117647zM813.176471 481.882353h30.117647v30.117647h-30.117647zM813.176471 512h30.117647v30.117647h-30.117647zM813.176471 542.117647h30.117647v30.117647h-30.117647zM813.176471 572.235294h30.117647v30.117647h-30.117647zM813.176471 602.352941h30.117647v30.117647h-30.117647zM813.176471 632.470588h30.117647v30.117647h-30.117647zM813.176471 662.588235h30.117647v30.117647h-30.117647zM813.176471 692.705882h30.117647v30.117647h-30.117647zM813.176471 722.823529h30.117647v30.117647h-30.117647zM813.176471 752.941176h30.117647v30.117648h-30.117647zM813.176471 783.058824h30.117647v30.117647h-30.117647z"
        fill="#FFD908" p-id="2865"></path>
    <path d="M813.176471 783.058824h30.117647v30.117647h-30.117647z" fill="#FFD908" p-id="2866"></path>
    <path d="M813.176471 783.058824h30.117647v30.117647h-30.117647z" fill="#FFD908" p-id="2867"></path>
    <path d="M813.176471 813.176471h30.117647v30.117647h-30.117647z" fill="#FFFFFF" p-id="2868"></path>
    <path d="M813.176471 843.294118h30.117647v30.117647h-30.117647z" fill="#FBFD04" p-id="2869"></path>
    <path d="M843.294118 120.470588h30.117647v30.117647h-30.117647z" fill="#FFD908" p-id="2870"></path>
    <path
        d="M843.294118 150.588235h30.117647v30.117647h-30.117647zM843.294118 180.705882h30.117647v30.117647h-30.117647z"
        fill="#FBFD04" p-id="2871"></path>
    <path d="M843.294118 210.823529h30.117647v30.117647h-30.117647z" fill="#FFB902" p-id="2872"></path>
    <path
        d="M873.411765 210.823529h30.117647v30.117647h-30.117647zM843.294118 240.941176h30.117647v30.117648h-30.117647zM873.411765 240.941176h30.117647v30.117648h-30.117647zM843.294118 271.058824h30.117647v30.117647h-30.117647zM873.411765 271.058824h30.117647v30.117647h-30.117647zM843.294118 301.176471h30.117647v30.117647h-30.117647zM873.411765 301.176471h30.117647v30.117647h-30.117647zM843.294118 331.294118h30.117647v30.117647h-30.117647zM873.411765 331.294118h30.117647v30.117647h-30.117647zM843.294118 361.411765h30.117647v30.117647h-30.117647zM873.411765 361.411765h30.117647v30.117647h-30.117647zM843.294118 391.529412h30.117647v30.117647h-30.117647zM873.411765 391.529412h30.117647v30.117647h-30.117647zM843.294118 421.647059h30.117647v30.117647h-30.117647zM873.411765 421.647059h30.117647v30.117647h-30.117647zM843.294118 451.764706h30.117647v30.117647h-30.117647zM873.411765 451.764706h30.117647v30.117647h-30.117647zM843.294118 481.882353h30.117647v30.117647h-30.117647zM873.411765 481.882353h30.117647v30.117647h-30.117647zM843.294118 512h30.117647v30.117647h-30.117647zM873.411765 512h30.117647v30.117647h-30.117647zM843.294118 542.117647h30.117647v30.117647h-30.117647zM873.411765 542.117647h30.117647v30.117647h-30.117647zM843.294118 572.235294h30.117647v30.117647h-30.117647zM873.411765 572.235294h30.117647v30.117647h-30.117647zM843.294118 602.352941h30.117647v30.117647h-30.117647zM873.411765 602.352941h30.117647v30.117647h-30.117647zM843.294118 632.470588h30.117647v30.117647h-30.117647zM873.411765 632.470588h30.117647v30.117647h-30.117647zM843.294118 662.588235h30.117647v30.117647h-30.117647zM873.411765 662.588235h30.117647v30.117647h-30.117647zM843.294118 692.705882h30.117647v30.117647h-30.117647zM873.411765 692.705882h30.117647v30.117647h-30.117647zM843.294118 722.823529h30.117647v30.117647h-30.117647zM873.411765 722.823529h30.117647v30.117647h-30.117647zM843.294118 752.941176h30.117647v30.117648h-30.117647zM873.411765 752.941176h30.117647v30.117648h-30.117647zM843.294118 783.058824h30.117647v30.117647h-30.117647zM873.411765 783.058824h30.117647v30.117647h-30.117647z"
        fill="#FFD908" p-id="2873"></path>
    <path
        d="M843.294118 783.058824h30.117647v30.117647h-30.117647zM873.411765 783.058824h30.117647v30.117647h-30.117647z"
        fill="#FFD908" p-id="2874"></path>
    <path
        d="M843.294118 783.058824h30.117647v30.117647h-30.117647zM873.411765 783.058824h30.117647v30.117647h-30.117647z"
        fill="#FFD908" p-id="2875"></path>
    <path
        d="M843.294118 813.176471h30.117647v30.117647h-30.117647zM843.294118 843.294118h30.117647v30.117647h-30.117647z"
        fill="#FBFD04" p-id="2876"></path>
    <path
        d="M30.117647 90.352941h30.117647v30.117647H30.117647zM30.117647 120.470588h30.117647v30.117647H30.117647zM30.117647 933.647059h30.117647v30.117647H30.117647zM60.235294 963.764706h30.117647v30.117647H60.235294zM90.352941 963.764706h30.117647v30.117647H90.352941zM963.764706 933.647059h30.117647v30.117647h-30.117647zM933.647059 963.764706h30.117647v30.117647h-30.117647zM903.529412 963.764706h30.117647v30.117647h-30.117647zM963.764706 903.529412h30.117647v30.117647h-30.117647zM933.647059 933.647059h30.117647v30.117647h-30.117647zM30.117647 903.529412h30.117647v30.117647H30.117647zM60.235294 933.647059h30.117647v30.117647H60.235294zM180.705882 30.117647h30.117647v30.117647h-30.117647zM903.529412 30.117647h30.117647v30.117647h-30.117647zM933.647059 60.235294h30.117647v30.117647h-30.117647zM120.470588 30.117647h30.117647v30.117647H120.470588zM210.823529 30.117647h30.117647v30.117647h-30.117647zM933.647059 30.117647h30.117647v30.117647h-30.117647zM963.764706 60.235294h30.117647v30.117647h-30.117647zM963.764706 90.352941h30.117647v30.117647h-30.117647z"
        fill="#FFFFFF" p-id="2877"></path>
    <path
        d="M301.176471 0h30.117647v30.117647h-30.117647zM301.176471 90.352941h30.117647v30.117647h-30.117647zM301.176471 903.529412h30.117647v30.117647h-30.117647zM120.470588 301.176471v30.117647H90.352941v-30.117647zM933.647059 301.176471v30.117647h-30.117647v-30.117647zM301.176471 993.882353h30.117647v30.117647h-30.117647zM30.117647 301.176471v30.117647H0v-30.117647zM1024 301.176471v30.117647h-30.117647v-30.117647zM542.117647 0h30.117647v30.117647h-30.117647zM542.117647 90.352941h30.117647v30.117647h-30.117647zM542.117647 903.529412h30.117647v30.117647h-30.117647zM120.470588 542.117647v30.117647H90.352941v-30.117647zM933.647059 542.117647v30.117647h-30.117647v-30.117647zM542.117647 993.882353h30.117647v30.117647h-30.117647zM30.117647 542.117647v30.117647H0v-30.117647zM1024 542.117647v30.117647h-30.117647v-30.117647zM180.705882 0h30.117647v30.117647h-30.117647zM180.705882 90.352941h30.117647v30.117647h-30.117647zM180.705882 903.529412h30.117647v30.117647h-30.117647zM180.705882 873.411765h30.117647v30.117647h-30.117647zM120.470588 180.705882v30.117647H90.352941v-30.117647zM933.647059 180.705882v30.117647h-30.117647v-30.117647zM180.705882 993.882353h30.117647v30.117647h-30.117647zM30.117647 180.705882v30.117647H0v-30.117647zM1024 180.705882v30.117647h-30.117647v-30.117647zM421.647059 0h30.117647v30.117647h-30.117647zM421.647059 90.352941h30.117647v30.117647h-30.117647zM421.647059 903.529412h30.117647v30.117647h-30.117647zM120.470588 421.647059v30.117647H90.352941v-30.117647zM933.647059 421.647059v30.117647h-30.117647v-30.117647zM421.647059 993.882353h30.117647v30.117647h-30.117647zM30.117647 421.647059v30.117647H0v-30.117647zM1024 421.647059v30.117647h-30.117647v-30.117647zM662.588235 0h30.117647v30.117647h-30.117647zM662.588235 90.352941h30.117647v30.117647h-30.117647zM662.588235 903.529412h30.117647v30.117647h-30.117647zM120.470588 662.588235v30.117647H90.352941v-30.117647zM933.647059 662.588235v30.117647h-30.117647v-30.117647zM662.588235 993.882353h30.117647v30.117647h-30.117647zM30.117647 662.588235v30.117647H0v-30.117647zM1024 662.588235v30.117647h-30.117647v-30.117647zM843.294118 0h30.117647v30.117647h-30.117647zM843.294118 90.352941h30.117647v30.117647h-30.117647zM843.294118 903.529412h30.117647v30.117647h-30.117647zM843.294118 873.411765h30.117647v30.117647h-30.117647zM120.470588 843.294118v30.117647H90.352941v-30.117647zM933.647059 843.294118v30.117647h-30.117647v-30.117647zM903.529412 843.294118v30.117647h-30.117647v-30.117647zM843.294118 993.882353h30.117647v30.117647h-30.117647zM30.117647 843.294118v30.117647H0v-30.117647zM1024 843.294118v30.117647h-30.117647v-30.117647zM120.470588 0h30.117647v30.117647H120.470588zM120.470588 90.352941h30.117647v30.117647H120.470588zM120.470588 120.470588h30.117647v30.117647H120.470588zM873.411765 120.470588h30.117647v30.117647h-30.117647zM873.411765 180.705882h30.117647v30.117647h-30.117647zM120.470588 903.529412h30.117647v30.117647H120.470588zM120.470588 873.411765h30.117647v30.117647H120.470588zM120.470588 120.470588v30.117647H90.352941V120.470588zM933.647059 120.470588v30.117647h-30.117647V120.470588zM120.470588 993.882353h30.117647v30.117647H120.470588zM30.117647 120.470588v30.117647H0V120.470588zM1024 120.470588v30.117647h-30.117647V120.470588zM361.411765 0h30.117647v30.117647h-30.117647zM361.411765 90.352941h30.117647v30.117647h-30.117647zM361.411765 903.529412h30.117647v30.117647h-30.117647zM120.470588 361.411765v30.117647H90.352941v-30.117647zM933.647059 361.411765v30.117647h-30.117647v-30.117647zM361.411765 993.882353h30.117647v30.117647h-30.117647zM30.117647 361.411765v30.117647H0v-30.117647zM1024 361.411765v30.117647h-30.117647v-30.117647zM602.352941 0h30.117647v30.117647h-30.117647zM602.352941 90.352941h30.117647v30.117647h-30.117647zM602.352941 903.529412h30.117647v30.117647h-30.117647zM120.470588 602.352941v30.117647H90.352941v-30.117647zM933.647059 602.352941v30.117647h-30.117647v-30.117647zM602.352941 993.882353h30.117647v30.117647h-30.117647zM30.117647 602.352941v30.117647H0v-30.117647zM1024 602.352941v30.117647h-30.117647v-30.117647zM783.058824 0h30.117647v30.117647h-30.117647zM783.058824 90.352941h30.117647v30.117647h-30.117647zM783.058824 903.529412h30.117647v30.117647h-30.117647zM120.470588 783.058824v30.117647H90.352941v-30.117647zM933.647059 783.058824v30.117647h-30.117647v-30.117647zM783.058824 993.882353h30.117647v30.117647h-30.117647zM30.117647 783.058824v30.117647H0v-30.117647zM1024 783.058824v30.117647h-30.117647v-30.117647zM240.941176 0h30.117648v30.117647h-30.117648zM240.941176 90.352941h30.117648v30.117647h-30.117648zM240.941176 903.529412h30.117648v30.117647h-30.117648zM120.470588 240.941176v30.117648H90.352941v-30.117648zM933.647059 240.941176v30.117648h-30.117647v-30.117648zM240.941176 993.882353h30.117648v30.117647h-30.117648zM30.117647 240.941176v30.117648H0v-30.117648zM1024 240.941176v30.117648h-30.117647v-30.117648zM481.882353 0h30.117647v30.117647h-30.117647zM481.882353 90.352941h30.117647v30.117647h-30.117647zM481.882353 903.529412h30.117647v30.117647h-30.117647zM120.470588 481.882353v30.117647H90.352941v-30.117647zM933.647059 481.882353v30.117647h-30.117647v-30.117647zM481.882353 993.882353h30.117647v30.117647h-30.117647zM30.117647 481.882353v30.117647H0v-30.117647zM1024 481.882353v30.117647h-30.117647v-30.117647zM722.823529 0h30.117647v30.117647h-30.117647zM722.823529 90.352941h30.117647v30.117647h-30.117647zM722.823529 903.529412h30.117647v30.117647h-30.117647zM120.470588 722.823529v30.117647H90.352941v-30.117647zM933.647059 722.823529v30.117647h-30.117647v-30.117647zM722.823529 993.882353h30.117647v30.117647h-30.117647zM30.117647 722.823529v30.117647H0v-30.117647zM1024 722.823529v30.117647h-30.117647v-30.117647zM903.529412 0h30.117647v30.117647h-30.117647zM903.529412 993.882353h30.117647v30.117647h-30.117647zM30.117647 903.529412v30.117647H0v-30.117647zM1024 903.529412v30.117647h-30.117647v-30.117647zM90.352941 0h30.117647v30.117647H90.352941zM90.352941 993.882353h30.117647v30.117647H90.352941zM30.117647 90.352941v30.117647H0V90.352941zM1024 90.352941v30.117647h-30.117647V90.352941zM331.294118 0h30.117647v30.117647h-30.117647zM331.294118 90.352941h30.117647v30.117647h-30.117647zM331.294118 903.529412h30.117647v30.117647h-30.117647zM120.470588 331.294118v30.117647H90.352941v-30.117647zM933.647059 331.294118v30.117647h-30.117647v-30.117647zM331.294118 993.882353h30.117647v30.117647h-30.117647zM30.117647 331.294118v30.117647H0v-30.117647zM1024 331.294118v30.117647h-30.117647v-30.117647zM572.235294 0h30.117647v30.117647h-30.117647zM572.235294 90.352941h30.117647v30.117647h-30.117647zM572.235294 903.529412h30.117647v30.117647h-30.117647zM120.470588 572.235294v30.117647H90.352941v-30.117647zM933.647059 572.235294v30.117647h-30.117647v-30.117647zM572.235294 993.882353h30.117647v30.117647h-30.117647zM30.117647 572.235294v30.117647H0v-30.117647zM1024 572.235294v30.117647h-30.117647v-30.117647zM210.823529 0h30.117647v30.117647h-30.117647zM210.823529 90.352941h30.117647v30.117647h-30.117647zM210.823529 903.529412h30.117647v30.117647h-30.117647zM120.470588 210.823529v30.117647H90.352941v-30.117647zM933.647059 210.823529v30.117647h-30.117647v-30.117647zM210.823529 993.882353h30.117647v30.117647h-30.117647zM30.117647 210.823529v30.117647H0v-30.117647zM1024 210.823529v30.117647h-30.117647v-30.117647zM451.764706 0h30.117647v30.117647h-30.117647zM451.764706 90.352941h30.117647v30.117647h-30.117647zM451.764706 903.529412h30.117647v30.117647h-30.117647zM120.470588 451.764706v30.117647H90.352941v-30.117647zM933.647059 451.764706v30.117647h-30.117647v-30.117647zM451.764706 993.882353h30.117647v30.117647h-30.117647zM30.117647 451.764706v30.117647H0v-30.117647zM1024 451.764706v30.117647h-30.117647v-30.117647zM692.705882 0h30.117647v30.117647h-30.117647zM692.705882 90.352941h30.117647v30.117647h-30.117647zM692.705882 903.529412h30.117647v30.117647h-30.117647zM120.470588 692.705882v30.117647H90.352941v-30.117647zM933.647059 692.705882v30.117647h-30.117647v-30.117647zM692.705882 993.882353h30.117647v30.117647h-30.117647zM30.117647 692.705882v30.117647H0v-30.117647zM1024 692.705882v30.117647h-30.117647v-30.117647zM873.411765 0h30.117647v30.117647h-30.117647zM873.411765 90.352941h30.117647v30.117647h-30.117647zM873.411765 150.588235h30.117647v30.117647h-30.117647zM873.411765 903.529412h30.117647v30.117647h-30.117647zM120.470588 873.411765v30.117647H90.352941v-30.117647zM933.647059 873.411765v30.117647h-30.117647v-30.117647zM903.529412 873.411765v30.117647h-30.117647v-30.117647zM873.411765 993.882353h30.117647v30.117647h-30.117647zM30.117647 873.411765v30.117647H0v-30.117647zM1024 873.411765v30.117647h-30.117647v-30.117647zM150.588235 0h30.117647v30.117647h-30.117647zM150.588235 90.352941h30.117647v30.117647h-30.117647zM150.588235 903.529412h30.117647v30.117647h-30.117647zM150.588235 873.411765h30.117647v30.117647h-30.117647zM120.470588 150.588235v30.117647H90.352941v-30.117647zM933.647059 150.588235v30.117647h-30.117647v-30.117647zM150.588235 993.882353h30.117647v30.117647h-30.117647zM30.117647 150.588235v30.117647H0v-30.117647zM1024 150.588235v30.117647h-30.117647v-30.117647zM391.529412 0h30.117647v30.117647h-30.117647zM391.529412 90.352941h30.117647v30.117647h-30.117647zM391.529412 903.529412h30.117647v30.117647h-30.117647zM120.470588 391.529412v30.117647H90.352941v-30.117647zM933.647059 391.529412v30.117647h-30.117647v-30.117647zM391.529412 993.882353h30.117647v30.117647h-30.117647zM30.117647 391.529412v30.117647H0v-30.117647zM1024 391.529412v30.117647h-30.117647v-30.117647zM632.470588 0h30.117647v30.117647h-30.117647zM632.470588 90.352941h30.117647v30.117647h-30.117647zM632.470588 903.529412h30.117647v30.117647h-30.117647zM120.470588 632.470588v30.117647H90.352941v-30.117647zM933.647059 632.470588v30.117647h-30.117647v-30.117647zM632.470588 993.882353h30.117647v30.117647h-30.117647zM30.117647 632.470588v30.117647H0v-30.117647zM1024 632.470588v30.117647h-30.117647v-30.117647zM813.176471 0h30.117647v30.117647h-30.117647zM813.176471 90.352941h30.117647v30.117647h-30.117647zM813.176471 903.529412h30.117647v30.117647h-30.117647zM813.176471 873.411765h30.117647v30.117647h-30.117647zM120.470588 813.176471v30.117647H90.352941v-30.117647zM933.647059 813.176471v30.117647h-30.117647v-30.117647zM903.529412 813.176471v30.117647h-30.117647v-30.117647zM813.176471 993.882353h30.117647v30.117647h-30.117647zM30.117647 813.176471v30.117647H0v-30.117647zM1024 813.176471v30.117647h-30.117647v-30.117647zM271.058824 0h30.117647v30.117647h-30.117647zM271.058824 90.352941h30.117647v30.117647h-30.117647zM271.058824 903.529412h30.117647v30.117647h-30.117647zM120.470588 271.058824v30.117647H90.352941v-30.117647zM933.647059 271.058824v30.117647h-30.117647v-30.117647zM271.058824 993.882353h30.117647v30.117647h-30.117647zM30.117647 271.058824v30.117647H0v-30.117647zM1024 271.058824v30.117647h-30.117647v-30.117647zM512 0h30.117647v30.117647h-30.117647zM512 90.352941h30.117647v30.117647h-30.117647zM512 903.529412h30.117647v30.117647h-30.117647zM120.470588 512v30.117647H90.352941v-30.117647zM933.647059 512v30.117647h-30.117647v-30.117647zM512 993.882353h30.117647v30.117647h-30.117647zM30.117647 512v30.117647H0v-30.117647zM1024 512v30.117647h-30.117647v-30.117647zM752.941176 0h30.117648v30.117647h-30.117648zM752.941176 90.352941h30.117648v30.117647h-30.117648zM752.941176 903.529412h30.117648v30.117647h-30.117648zM120.470588 752.941176v30.117648H90.352941v-30.117648zM933.647059 752.941176v30.117648h-30.117647v-30.117648zM752.941176 993.882353h30.117648v30.117647h-30.117648zM30.117647 752.941176v30.117648H0v-30.117648zM1024 752.941176v30.117648h-30.117647v-30.117648zM933.647059 0h30.117647v30.117647h-30.117647zM933.647059 993.882353h30.117647v30.117647h-30.117647zM30.117647 933.647059v30.117647H0v-30.117647zM60.235294 963.764706v30.117647H30.117647v-30.117647zM1024 933.647059v30.117647h-30.117647v-30.117647zM993.882353 963.764706v30.117647h-30.117647v-30.117647zM963.764706 30.117647h30.117647v30.117647h-30.117647z"
        fill="#FFB902" p-id="2878"></path>
    <path
        d="M240.941176 30.117647h30.117648v30.117647h-30.117648zM90.352941 150.588235v30.117647H60.235294v-30.117647zM993.882353 120.470588v30.117647h-30.117647V120.470588zM903.529412 993.882353h-30.117647v-30.117647h30.117647zM60.235294 150.588235v30.117647H30.117647v-30.117647zM963.764706 120.470588v30.117647h-30.117647V120.470588zM903.529412 963.764706h-30.117647v-30.117647h30.117647zM90.352941 60.235294h30.117647v30.117647H90.352941zM60.235294 90.352941h30.117647v30.117647H60.235294zM60.235294 120.470588h30.117647v30.117647H60.235294zM271.058824 30.117647h30.117647v30.117647h-30.117647zM90.352941 180.705882v30.117647H60.235294v-30.117647zM993.882353 150.588235v30.117647h-30.117647v-30.117647zM873.411765 993.882353h-30.117647v-30.117647h30.117647zM60.235294 180.705882v30.117647H30.117647v-30.117647zM963.764706 150.588235v30.117647h-30.117647v-30.117647zM873.411765 963.764706h-30.117647v-30.117647h30.117647zM120.470588 60.235294h30.117647v30.117647H120.470588zM90.352941 90.352941h30.117647v30.117647H90.352941zM301.176471 30.117647h30.117647v30.117647h-30.117647zM90.352941 210.823529v30.117647H60.235294v-30.117647zM993.882353 180.705882v30.117647h-30.117647v-30.117647zM843.294118 993.882353h-30.117647v-30.117647h30.117647zM60.235294 210.823529v30.117647H30.117647v-30.117647zM963.764706 180.705882v30.117647h-30.117647v-30.117647zM843.294118 963.764706h-30.117647v-30.117647h30.117647zM150.588235 60.235294h30.117647v30.117647h-30.117647zM331.294118 30.117647h30.117647v30.117647h-30.117647zM90.352941 240.941176v30.117648H60.235294v-30.117648zM993.882353 210.823529v30.117647h-30.117647v-30.117647zM813.176471 993.882353h-30.117647v-30.117647h30.117647zM60.235294 240.941176v30.117648H30.117647v-30.117648zM963.764706 210.823529v30.117647h-30.117647v-30.117647zM813.176471 963.764706h-30.117647v-30.117647h30.117647zM180.705882 60.235294h30.117647v30.117647h-30.117647zM361.411765 30.117647h30.117647v30.117647h-30.117647zM90.352941 271.058824v30.117647H60.235294v-30.117647zM993.882353 240.941176v30.117648h-30.117647v-30.117648zM783.058824 993.882353h-30.117648v-30.117647h30.117648zM60.235294 271.058824v30.117647H30.117647v-30.117647zM963.764706 240.941176v30.117648h-30.117647v-30.117648zM783.058824 963.764706h-30.117648v-30.117647h30.117648zM210.823529 60.235294h30.117647v30.117647h-30.117647zM391.529412 30.117647h30.117647v30.117647h-30.117647zM90.352941 301.176471v30.117647H60.235294v-30.117647zM993.882353 271.058824v30.117647h-30.117647v-30.117647zM752.941176 993.882353h-30.117647v-30.117647h30.117647zM60.235294 301.176471v30.117647H30.117647v-30.117647zM963.764706 271.058824v30.117647h-30.117647v-30.117647zM752.941176 963.764706h-30.117647v-30.117647h30.117647zM240.941176 60.235294h30.117648v30.117647h-30.117648zM421.647059 30.117647h30.117647v30.117647h-30.117647zM90.352941 331.294118v30.117647H60.235294v-30.117647zM993.882353 301.176471v30.117647h-30.117647v-30.117647zM722.823529 993.882353h-30.117647v-30.117647h30.117647zM60.235294 331.294118v30.117647H30.117647v-30.117647zM963.764706 301.176471v30.117647h-30.117647v-30.117647zM722.823529 963.764706h-30.117647v-30.117647h30.117647zM271.058824 60.235294h30.117647v30.117647h-30.117647zM451.764706 30.117647h30.117647v30.117647h-30.117647zM90.352941 361.411765v30.117647H60.235294v-30.117647zM993.882353 331.294118v30.117647h-30.117647v-30.117647zM692.705882 993.882353h-30.117647v-30.117647h30.117647zM60.235294 361.411765v30.117647H30.117647v-30.117647zM963.764706 331.294118v30.117647h-30.117647v-30.117647zM692.705882 963.764706h-30.117647v-30.117647h30.117647zM301.176471 60.235294h30.117647v30.117647h-30.117647zM481.882353 30.117647h30.117647v30.117647h-30.117647zM90.352941 391.529412v30.117647H60.235294v-30.117647zM993.882353 361.411765v30.117647h-30.117647v-30.117647zM662.588235 993.882353h-30.117647v-30.117647h30.117647zM60.235294 391.529412v30.117647H30.117647v-30.117647zM963.764706 361.411765v30.117647h-30.117647v-30.117647zM662.588235 963.764706h-30.117647v-30.117647h30.117647zM331.294118 60.235294h30.117647v30.117647h-30.117647zM512 30.117647h30.117647v30.117647h-30.117647zM90.352941 421.647059v30.117647H60.235294v-30.117647zM993.882353 391.529412v30.117647h-30.117647v-30.117647zM632.470588 993.882353h-30.117647v-30.117647h30.117647zM60.235294 421.647059v30.117647H30.117647v-30.117647zM963.764706 391.529412v30.117647h-30.117647v-30.117647zM632.470588 963.764706h-30.117647v-30.117647h30.117647zM361.411765 60.235294h30.117647v30.117647h-30.117647zM542.117647 30.117647h30.117647v30.117647h-30.117647zM90.352941 451.764706v30.117647H60.235294v-30.117647zM993.882353 421.647059v30.117647h-30.117647v-30.117647zM602.352941 993.882353h-30.117647v-30.117647h30.117647zM60.235294 451.764706v30.117647H30.117647v-30.117647zM963.764706 421.647059v30.117647h-30.117647v-30.117647zM602.352941 963.764706h-30.117647v-30.117647h30.117647zM391.529412 60.235294h30.117647v30.117647h-30.117647zM572.235294 30.117647h30.117647v30.117647h-30.117647zM90.352941 481.882353v30.117647H60.235294v-30.117647zM993.882353 451.764706v30.117647h-30.117647v-30.117647zM572.235294 993.882353h-30.117647v-30.117647h30.117647zM60.235294 481.882353v30.117647H30.117647v-30.117647zM963.764706 451.764706v30.117647h-30.117647v-30.117647zM572.235294 963.764706h-30.117647v-30.117647h30.117647zM421.647059 60.235294h30.117647v30.117647h-30.117647zM602.352941 30.117647h30.117647v30.117647h-30.117647zM90.352941 512v30.117647H60.235294v-30.117647zM993.882353 481.882353v30.117647h-30.117647v-30.117647zM542.117647 993.882353h-30.117647v-30.117647h30.117647zM60.235294 512v30.117647H30.117647v-30.117647zM963.764706 481.882353v30.117647h-30.117647v-30.117647zM542.117647 963.764706h-30.117647v-30.117647h30.117647zM451.764706 60.235294h30.117647v30.117647h-30.117647zM632.470588 30.117647h30.117647v30.117647h-30.117647zM90.352941 542.117647v30.117647H60.235294v-30.117647zM993.882353 512v30.117647h-30.117647v-30.117647zM512 993.882353h-30.117647v-30.117647h30.117647zM60.235294 542.117647v30.117647H30.117647v-30.117647zM963.764706 512v30.117647h-30.117647v-30.117647zM512 963.764706h-30.117647v-30.117647h30.117647zM481.882353 60.235294h30.117647v30.117647h-30.117647zM662.588235 30.117647h30.117647v30.117647h-30.117647zM90.352941 572.235294v30.117647H60.235294v-30.117647zM993.882353 542.117647v30.117647h-30.117647v-30.117647zM481.882353 993.882353h-30.117647v-30.117647h30.117647zM60.235294 572.235294v30.117647H30.117647v-30.117647zM963.764706 542.117647v30.117647h-30.117647v-30.117647zM481.882353 963.764706h-30.117647v-30.117647h30.117647zM512 60.235294h30.117647v30.117647h-30.117647zM722.823529 60.235294h30.117647v30.117647h-30.117647zM692.705882 30.117647h30.117647v30.117647h-30.117647zM90.352941 602.352941v30.117647H60.235294v-30.117647zM993.882353 572.235294v30.117647h-30.117647v-30.117647zM451.764706 993.882353h-30.117647v-30.117647h30.117647zM60.235294 602.352941v30.117647H30.117647v-30.117647zM963.764706 572.235294v30.117647h-30.117647v-30.117647zM451.764706 963.764706h-30.117647v-30.117647h30.117647zM542.117647 60.235294h30.117647v30.117647h-30.117647zM752.941176 60.235294h30.117648v30.117647h-30.117648zM722.823529 30.117647h30.117647v30.117647h-30.117647zM90.352941 632.470588v30.117647H60.235294v-30.117647zM993.882353 602.352941v30.117647h-30.117647v-30.117647zM421.647059 993.882353h-30.117647v-30.117647h30.117647zM90.352941 783.058824v30.117647H60.235294v-30.117647zM993.882353 752.941176v30.117648h-30.117647v-30.117648zM271.058824 993.882353h-30.117648v-30.117647h30.117648zM60.235294 632.470588v30.117647H30.117647v-30.117647zM963.764706 602.352941v30.117647h-30.117647v-30.117647zM421.647059 963.764706h-30.117647v-30.117647h30.117647zM60.235294 783.058824v30.117647H30.117647v-30.117647zM963.764706 752.941176v30.117648h-30.117647v-30.117648zM271.058824 963.764706h-30.117648v-30.117647h30.117648zM572.235294 60.235294h30.117647v30.117647h-30.117647zM783.058824 60.235294h30.117647v30.117647h-30.117647zM752.941176 30.117647h30.117648v30.117647h-30.117648zM90.352941 662.588235v30.117647H60.235294v-30.117647zM993.882353 632.470588v30.117647h-30.117647v-30.117647zM391.529412 993.882353h-30.117647v-30.117647h30.117647zM90.352941 813.176471v30.117647H60.235294v-30.117647zM993.882353 783.058824v30.117647h-30.117647v-30.117647zM240.941176 993.882353h-30.117647v-30.117647h30.117647zM60.235294 662.588235v30.117647H30.117647v-30.117647zM963.764706 632.470588v30.117647h-30.117647v-30.117647zM391.529412 963.764706h-30.117647v-30.117647h30.117647zM60.235294 813.176471v30.117647H30.117647v-30.117647zM963.764706 783.058824v30.117647h-30.117647v-30.117647zM240.941176 963.764706h-30.117647v-30.117647h30.117647zM602.352941 60.235294h30.117647v30.117647h-30.117647zM813.176471 60.235294h30.117647v30.117647h-30.117647zM783.058824 30.117647h30.117647v30.117647h-30.117647zM90.352941 692.705882v30.117647H60.235294v-30.117647zM993.882353 662.588235v30.117647h-30.117647v-30.117647zM361.411765 993.882353h-30.117647v-30.117647h30.117647zM90.352941 843.294118v30.117647H60.235294v-30.117647zM993.882353 813.176471v30.117647h-30.117647v-30.117647zM210.823529 993.882353h-30.117647v-30.117647h30.117647zM60.235294 692.705882v30.117647H30.117647v-30.117647zM963.764706 662.588235v30.117647h-30.117647v-30.117647zM361.411765 963.764706h-30.117647v-30.117647h30.117647zM60.235294 843.294118v30.117647H30.117647v-30.117647zM963.764706 813.176471v30.117647h-30.117647v-30.117647zM210.823529 963.764706h-30.117647v-30.117647h30.117647zM632.470588 60.235294h30.117647v30.117647h-30.117647zM843.294118 60.235294h30.117647v30.117647h-30.117647zM813.176471 30.117647h30.117647v30.117647h-30.117647zM90.352941 722.823529v30.117647H60.235294v-30.117647zM993.882353 692.705882v30.117647h-30.117647v-30.117647zM331.294118 993.882353h-30.117647v-30.117647h30.117647zM90.352941 873.411765v30.117647H60.235294v-30.117647zM993.882353 843.294118v30.117647h-30.117647v-30.117647zM180.705882 993.882353h-30.117647v-30.117647h30.117647zM993.882353 873.411765v30.117647h-30.117647v-30.117647zM150.588235 993.882353H120.470588v-30.117647h30.117647zM963.764706 903.529412v30.117647h-30.117647v-30.117647zM90.352941 903.529412v30.117647H60.235294v-30.117647zM120.470588 903.529412v30.117647H90.352941v-30.117647zM120.470588 933.647059v30.117647H90.352941v-30.117647zM60.235294 722.823529v30.117647H30.117647v-30.117647zM963.764706 692.705882v30.117647h-30.117647v-30.117647zM331.294118 963.764706h-30.117647v-30.117647h30.117647zM60.235294 873.411765v30.117647H30.117647v-30.117647zM963.764706 843.294118v30.117647h-30.117647v-30.117647zM180.705882 963.764706h-30.117647v-30.117647h30.117647zM963.764706 873.411765v30.117647h-30.117647v-30.117647zM150.588235 963.764706H120.470588v-30.117647h30.117647zM933.647059 903.529412v30.117647h-30.117647v-30.117647zM933.647059 933.647059v30.117647h-30.117647v-30.117647zM662.588235 60.235294h30.117647v30.117647h-30.117647zM873.411765 60.235294h30.117647v30.117647h-30.117647zM903.529412 90.352941h30.117647v30.117647h-30.117647zM843.294118 30.117647h30.117647v30.117647h-30.117647zM90.352941 752.941176v30.117648H60.235294v-30.117648zM993.882353 722.823529v30.117647h-30.117647v-30.117647zM301.176471 993.882353h-30.117647v-30.117647h30.117647zM60.235294 752.941176v30.117648H30.117647v-30.117648zM963.764706 722.823529v30.117647h-30.117647v-30.117647zM301.176471 963.764706h-30.117647v-30.117647h30.117647zM692.705882 60.235294h30.117647v30.117647h-30.117647zM903.529412 60.235294h30.117647v30.117647h-30.117647zM933.647059 90.352941h30.117647v30.117647h-30.117647z"
        fill="#FBFD04" p-id="2879"></path>
</svg>